<svg width="137" height="29" viewBox="0 0 137 29" fill="none" xmlns="http://www.w3.org/2000/svg">
<path d="M8.29785 28.0977C4.89941 27.1442 3.2002 24.9494 3.2002 21.5132V18.6953C3.2002 16.7035 2.36003 15.7075 0.679688 15.7075V12.7764C2.32227 12.7764 3.16243 11.8371 3.2002 9.9585V6.95654C3.2002 5.21012 3.625 3.79883 4.47461 2.72266C5.32422 1.64648 6.59863 0.867676 8.29785 0.38623L9.09082 2.66602C8.37337 2.93034 7.83057 3.3929 7.4624 4.05371C7.09424 4.70508 6.90072 5.61133 6.88184 6.77246V9.74609C6.88184 11.8796 6.03695 13.3758 4.34717 14.2349C6.03695 15.1034 6.88184 16.609 6.88184 18.752V21.7539C6.92904 23.9629 7.66536 25.3128 9.09082 25.8037L8.29785 28.0977ZM16.709 16.8545L15.2363 18.3271V23H11.144V1.25H15.2363V13.3003L16.0293 12.2808L19.9517 7.67871H24.8652L19.3286 14.0649L25.3467 23H20.6455L16.709 16.8545ZM33.4038 23.2832C31.1571 23.2832 29.3257 22.5941 27.9097 21.2158C26.5031 19.8376 25.7998 18.0015 25.7998 15.7075V15.311C25.7998 13.7723 26.0972 12.3988 26.6919 11.1904C27.2866 9.97266 28.1268 9.03809 29.2124 8.38672C30.3075 7.72591 31.5535 7.39551 32.9507 7.39551C35.0464 7.39551 36.6937 8.05632 37.8926 9.37793C39.1009 10.6995 39.7051 12.5734 39.7051 14.9995V16.6704H29.9487C30.0809 17.6711 30.4774 18.4735 31.1382 19.0776C31.8084 19.6818 32.6533 19.9839 33.6729 19.9839C35.2493 19.9839 36.4813 19.4128 37.3687 18.2705L39.3794 20.522C38.7658 21.3905 37.9351 22.0701 36.8872 22.561C35.8394 23.0425 34.6782 23.2832 33.4038 23.2832ZM32.9365 10.709C32.1247 10.709 31.4639 10.9827 30.9541 11.5303C30.4538 12.0778 30.1328 12.8613 29.9912 13.8809H35.6836V13.5552C35.6647 12.6489 35.4193 11.9504 34.9473 11.4595C34.4753 10.9591 33.805 10.709 32.9365 10.709ZM49.0933 23.2832C46.8465 23.2832 45.0151 22.5941 43.5991 21.2158C42.1925 19.8376 41.4893 18.0015 41.4893 15.7075V15.311C41.4893 13.7723 41.7866 12.3988 42.3813 11.1904C42.9761 9.97266 43.8162 9.03809 44.9019 8.38672C45.9969 7.72591 47.243 7.39551 48.6401 7.39551C50.7358 7.39551 52.3831 8.05632 53.582 9.37793C54.7904 10.6995 55.3945 12.5734 55.3945 14.9995V16.6704H45.6382C45.7703 17.6711 46.1668 18.4735 46.8276 19.0776C47.4979 19.6818 48.3428 19.9839 49.3623 19.9839C50.9388 19.9839 52.1707 19.4128 53.0581 18.2705L55.0688 20.522C54.4552 21.3905 53.6245 22.0701 52.5767 22.561C51.5288 23.0425 50.3677 23.2832 49.0933 23.2832ZM48.626 10.709C47.8141 10.709 47.1533 10.9827 46.6436 11.5303C46.1432 12.0778 45.8223 12.8613 45.6807 13.8809H51.373V13.5552C51.3542 12.6489 51.1087 11.9504 50.6367 11.4595C50.1647 10.9591 49.4945 10.709 48.626 10.709ZM71.5229 15.481C71.5229 17.841 70.9849 19.7337 69.9087 21.1592C68.842 22.5752 67.3976 23.2832 65.5757 23.2832C64.0275 23.2832 62.7767 22.7451 61.8232 21.6689V28.8906H57.731V7.67871H61.5259L61.6675 9.17969C62.6587 7.99023 63.952 7.39551 65.5474 7.39551C67.4354 7.39551 68.9033 8.09408 69.9512 9.49121C70.999 10.8883 71.5229 12.8141 71.5229 15.2686V15.481ZM67.4307 15.1836C67.4307 13.7581 67.1758 12.6584 66.666 11.8843C66.1657 11.1102 65.4341 10.7231 64.4712 10.7231C63.1873 10.7231 62.3047 11.214 61.8232 12.1958V18.4688C62.3236 19.4788 63.2157 19.9839 64.4995 19.9839C66.4536 19.9839 67.4307 18.3838 67.4307 15.1836ZM128.263 25.8037C129.698 25.2939 130.434 23.9251 130.472 21.6973V18.6953C130.472 16.5618 131.335 15.0798 133.063 14.249C131.335 13.4183 130.472 11.9126 130.472 9.73193V6.77246C130.434 4.57292 129.698 3.2041 128.263 2.66602L129.056 0.38623C130.745 0.858236 132.015 1.63232 132.865 2.7085C133.714 3.77523 134.144 5.17708 134.153 6.91406V9.9585C134.191 11.8371 135.031 12.7764 136.674 12.7764V15.7075C134.993 15.7075 134.153 16.694 134.153 18.667V21.7397C134.078 25.0438 132.379 27.1631 129.056 28.0977L128.263 25.8037Z" fill="white"/>
<path d="M82.9502 23C82.7614 22.6318 82.6245 22.174 82.5396 21.6265C81.5483 22.731 80.2598 23.2832 78.6738 23.2832C77.1729 23.2832 75.9268 22.849 74.9355 21.9805C73.9538 21.112 73.4629 20.0169 73.4629 18.6953C73.4629 17.0716 74.0623 15.8255 75.2612 14.957C76.4696 14.0885 78.2113 13.6496 80.4863 13.6401H82.3696V12.7622C82.3696 12.0542 82.1855 11.4878 81.8174 11.063C81.4587 10.6382 80.8875 10.4258 80.104 10.4258C79.4149 10.4258 78.8721 10.591 78.4756 10.9214C78.0885 11.2518 77.895 11.7049 77.895 12.2808H73.8027C73.8027 11.3934 74.0765 10.5721 74.624 9.81689C75.1715 9.06169 75.9456 8.47168 76.9463 8.04688C77.9469 7.61263 79.0703 7.39551 80.3164 7.39551C82.2044 7.39551 83.7007 7.87223 84.8052 8.82568C85.9191 9.76969 86.4761 11.1007 86.4761 12.8188V19.46C86.4855 20.9137 86.6885 22.0135 87.085 22.7593V23H82.9502ZM79.5659 20.1538C80.1701 20.1538 80.7271 20.0216 81.2368 19.7573C81.7466 19.4836 82.1242 19.1201 82.3696 18.667V16.0332H80.8403C78.7918 16.0332 77.7015 16.7412 77.5693 18.1572L77.5552 18.3979C77.5552 18.9077 77.7345 19.3278 78.0933 19.6582C78.452 19.9886 78.9429 20.1538 79.5659 20.1538ZM103.426 15.481C103.426 17.9354 102.902 19.8517 101.854 21.23C100.806 22.5988 99.3429 23.2832 97.4644 23.2832C95.8029 23.2832 94.4766 22.646 93.4854 21.3716L93.3013 23H89.6196V1.25H93.7119V9.05225C94.6559 7.94775 95.8973 7.39551 97.436 7.39551C99.3052 7.39551 100.768 8.08464 101.826 9.46289C102.892 10.8317 103.426 12.7622 103.426 15.2544V15.481ZM99.3335 15.1836C99.3335 13.6354 99.0881 12.5073 98.5972 11.7993C98.1063 11.0819 97.3747 10.7231 96.4023 10.7231C95.0996 10.7231 94.2028 11.2565 93.7119 12.3232V18.3696C94.2122 19.4458 95.1185 19.9839 96.4307 19.9839C97.7523 19.9839 98.6208 19.3325 99.0361 18.0298C99.2344 17.4067 99.3335 16.458 99.3335 15.1836ZM110.279 23H106.173V1.25H110.279V23ZM120.715 23.2832C118.469 23.2832 116.637 22.5941 115.221 21.2158C113.815 19.8376 113.111 18.0015 113.111 15.7075V15.311C113.111 13.7723 113.409 12.3988 114.003 11.1904C114.598 9.97266 115.438 9.03809 116.524 8.38672C117.619 7.72591 118.865 7.39551 120.262 7.39551C122.358 7.39551 124.005 8.05632 125.204 9.37793C126.412 10.6995 127.017 12.5734 127.017 14.9995V16.6704H117.26C117.392 17.6711 117.789 18.4735 118.45 19.0776C119.12 19.6818 119.965 19.9839 120.984 19.9839C122.561 19.9839 123.793 19.4128 124.68 18.2705L126.691 20.522C126.077 21.3905 125.247 22.0701 124.199 22.561C123.151 23.0425 121.99 23.2832 120.715 23.2832ZM120.248 10.709C119.436 10.709 118.775 10.9827 118.266 11.5303C117.765 12.0778 117.444 12.8613 117.303 13.8809H122.995V13.5552C122.976 12.6489 122.731 11.9504 122.259 11.4595C121.787 10.9591 121.117 10.709 120.248 10.709Z" fill="#999B9E"/>
</svg>
